<svg width="15" height="16" viewBox="0 0 15 16" fill="none" xmlns="http://www.w3.org/2000/svg">
<path d="M11.6797 8.82031V7.17969H8.32031V3.82031H6.67969V7.17969H3.32031V8.82031H6.67969V12.1797H8.32031V8.82031H11.6797ZM13.3203 0.5C13.763 0.5 14.1536 0.669271 14.4922 1.00781C14.8307 1.34635 15 1.73698 15 2.17969V13.8203C15 14.263 14.8307 14.6536 14.4922 14.9922C14.1536 15.3307 13.763 15.5 13.3203 15.5H1.67969C1.21094 15.5 0.807292 15.3307 0.46875 14.9922C0.15625 14.6536 0 14.263 0 13.8203V2.17969C0 1.73698 0.15625 1.34635 0.46875 1.00781C0.807292 0.669271 1.21094 0.5 1.67969 0.5H13.3203Z" fill="#604C76"/>
</svg>
