<svg width="22" height="22" viewBox="0 0 22 22" fill="none" xmlns="http://www.w3.org/2000/svg">
<path d="M17.7217 9.67953C16.8155 9.67953 15.9469 9.96258 15.2225 10.4859V7.56059C15.2225 7.11837 14.8626 6.75853 14.4203 6.75853H11.0965C11.6112 6.03778 11.8895 5.17568 11.8895 4.27824C11.8895 1.91921 9.97039 0 7.61142 0C5.25239 0 3.33314 1.91918 3.33314 4.27824C3.33314 5.17561 3.61149 6.03774 4.12594 6.75853H0.802209C0.359873 6.75853 0 7.11837 0 7.56059V11.3841C0 11.4937 0.0668628 11.5923 0.16881 11.6326C0.270794 11.6732 0.386941 11.6472 0.462072 11.5675C1.05456 10.9385 1.85508 10.5921 2.71628 10.5921C4.42459 10.5921 5.8144 11.982 5.8144 13.6904C5.8144 15.3988 4.42459 16.7887 2.71628 16.7887C1.85508 16.7887 1.05449 16.4423 0.462072 15.8133C0.386941 15.7336 0.270794 15.7077 0.16881 15.7482C0.0668628 15.7886 0 15.8871 0 15.9967V20.3549C0 20.7973 0.359873 21.1571 0.802173 21.1571H14.4203C14.8626 21.1571 15.2225 20.7972 15.2225 20.3549V17.4296C15.9468 17.9529 16.8155 18.2359 17.7217 18.2359C20.0808 18.2359 22 16.3167 22 13.9577C22 11.5988 20.0808 9.67953 17.7217 9.67953Z" fill="#604C76"/>
</svg>
