<svg width="14" height="14" viewBox="0 0 14 14" fill="none" xmlns="http://www.w3.org/2000/svg">
<path d="M7 8.75C7.9665 8.75 8.75 7.9665 8.75 7C8.75 6.0335 7.9665 5.25 7 5.25C6.0335 5.25 5.25 6.0335 5.25 7C5.25 7.9665 6.0335 8.75 7 8.75Z" fill="#604C76"/>
<path d="M11.6665 2.33366H9.81734L9.094 1.54616C8.87817 1.30699 8.56317 1.16699 8.2365 1.16699H5.76317C5.4365 1.16699 5.1215 1.30699 4.89984 1.54616L4.18234 2.33366H2.33317C1.6915 2.33366 1.1665 2.85866 1.1665 3.50033V10.5003C1.1665 11.142 1.6915 11.667 2.33317 11.667H11.6665C12.3082 11.667 12.8332 11.142 12.8332 10.5003V3.50033C12.8332 2.85866 12.3082 2.33366 11.6665 2.33366ZM6.99984 9.91699C5.38984 9.91699 4.08317 8.61032 4.08317 7.00032C4.08317 5.39033 5.38984 4.08366 6.99984 4.08366C8.60984 4.08366 9.9165 5.39033 9.9165 7.00032C9.9165 8.61032 8.60984 9.91699 6.99984 9.91699Z" fill="#604C76"/>
</svg>
