<svg width="20" height="22" viewBox="0 0 20 22" fill="none" xmlns="http://www.w3.org/2000/svg">
<path d="M8.96819 17.4527L8.97196 17.4537C8.96936 17.4531 8.96815 17.4528 8.96819 17.4527Z" fill="#604C76"/>
<path fill-rule="evenodd" clip-rule="evenodd" d="M0.466797 2.2C0.466797 0.984974 1.45177 0 2.6668 0H14.7039L19.5335 4.82958V19.8C19.5335 21.015 18.5485 22 17.3335 22H2.6668C1.45177 22 0.466797 21.015 0.466797 19.8V2.2ZM9.2668 5.86667H4.8668V7.33333H9.2668V5.86667ZM15.1335 10.2667H4.8668V11.7333H15.1335V10.2667ZM8.24703 15.9982C7.6547 16.1573 7.19213 16.6095 7.02913 17.0985L5.63773 16.6347C5.96361 15.6571 6.82104 14.8626 7.86649 14.5817C8.90361 14.3031 10.086 14.5365 11.1098 15.4784C11.4174 15.3878 11.7221 15.3369 12.0234 15.3208C12.8134 15.2785 13.5235 15.4777 14.1321 15.7314C14.5792 15.9176 15.0126 16.1531 15.377 16.3511C15.4935 16.4144 15.6029 16.4739 15.7035 16.5267C16.1776 16.7756 16.4386 16.8666 16.6001 16.8666V18.3333C16.0283 18.3333 15.4642 18.0576 15.0217 17.8253C14.8851 17.7536 14.753 17.6818 14.6226 17.611C14.2745 17.422 13.939 17.2398 13.568 17.0852C13.0767 16.8805 12.5951 16.7589 12.1018 16.7854C12.0301 16.7892 11.9569 16.7962 11.8822 16.807L11.884 16.8265C11.9231 17.3029 11.7265 17.6946 11.4733 17.9759C11.0061 18.4951 10.2449 18.7675 9.67295 18.8715C9.37502 18.9256 9.05457 18.9484 8.77242 18.9071C8.63431 18.8869 8.45623 18.8445 8.28846 18.7446C8.11007 18.6384 7.89865 18.4353 7.84445 18.1101C7.79404 17.8076 7.90787 17.5583 8.00734 17.4051C8.10995 17.247 8.24811 17.1104 8.39086 16.9922C8.66868 16.7621 9.07341 16.5133 9.61418 16.2399L9.65361 16.2112C9.14279 15.9127 8.65223 15.8893 8.24703 15.9982Z" fill="#604C76"/>
</svg>
