<svg width="64" height="64" viewBox="0 0 64 64" fill="none" xmlns="http://www.w3.org/2000/svg">
<path fill-rule="evenodd" clip-rule="evenodd" d="M27.5812 2.33033L22.8393 7.07222C22.455 7.45651 21.9338 7.6724 21.3903 7.6724H13.9216C10.4702 7.6724 7.6724 10.4702 7.6724 13.9216V21.3903C7.6724 21.9338 7.45651 22.455 7.07222 22.8393L2.33033 27.5812C-0.11011 30.0216 -0.110112 33.9784 2.33033 36.4188L7.07222 41.1607C7.45651 41.545 7.6724 42.0662 7.6724 42.6097V50.0784C7.6724 53.5298 10.4702 56.3276 13.9216 56.3276H21.3903C21.9338 56.3276 22.455 56.5435 22.8393 56.9278L27.5812 61.6697C30.0216 64.1101 33.9784 64.1101 36.4188 61.6697L41.1607 56.9278C41.545 56.5435 42.0662 56.3276 42.6097 56.3276H50.0784C53.5298 56.3276 56.3276 53.5297 56.3276 50.0784V42.6097C56.3276 42.0662 56.5435 41.545 56.9278 41.1607L61.6697 36.4188C64.1101 33.9784 64.1101 30.0216 61.6697 27.5812L56.9278 22.8393C56.5435 22.455 56.3276 21.9338 56.3276 21.3903V13.9216C56.3276 10.4702 53.5297 7.6724 50.0784 7.6724H42.6097C42.0662 7.6724 41.545 7.45651 41.1607 7.07222L36.4188 2.33034C33.9784 -0.11011 30.0216 -0.110112 27.5812 2.33033ZM20.0152 41.0151L41.0152 20.0151L43.9851 22.985L22.9851 43.985L20.0152 41.0151ZM21.5 21.5V25.7H25.7V21.5H21.5ZM38.3 42.5H42.5V38.3H38.3V42.5Z" fill="#604C76"/>
</svg>
