<svg width="9" height="15" viewBox="0 0 9 15" fill="none" xmlns="http://www.w3.org/2000/svg">
<path d="M3.536 12.34C2.75733 12.276 2.12267 12.1587 1.632 11.988C1.152 11.8067 0.794667 11.6573 0.56 11.54L1.248 9.7C1.62133 9.88133 2.064 10.0467 2.576 10.196C3.09867 10.3453 3.648 10.42 4.224 10.42C4.87467 10.42 5.31733 10.3347 5.552 10.164C5.79733 9.98267 5.92 9.732 5.92 9.412C5.92 9.20933 5.872 9.03867 5.776 8.9C5.68 8.75067 5.54133 8.61733 5.36 8.5C5.17867 8.38267 4.94933 8.27067 4.672 8.164C4.39467 8.04667 4.07467 7.924 3.712 7.796C3.36 7.668 3.01333 7.52933 2.672 7.38C2.34133 7.22 2.03733 7.028 1.76 6.804C1.49333 6.58 1.27467 6.308 1.104 5.988C0.944 5.65733 0.864 5.26267 0.864 4.804C0.864 4.452 0.912 4.116 1.008 3.796C1.11467 3.46533 1.27467 3.16667 1.488 2.9C1.70133 2.63333 1.97867 2.40933 2.32 2.228C2.66133 2.036 3.06667 1.89733 3.536 1.812V0.0839996H5.552V1.748C6.10667 1.80133 6.58133 1.88133 6.976 1.988C7.38133 2.09467 7.70133 2.20133 7.936 2.308L7.44 4.228C7.088 4.07867 6.67733 3.95067 6.208 3.844C5.74933 3.73733 5.264 3.684 4.752 3.684C4.24 3.684 3.872 3.76933 3.648 3.94C3.424 4.11067 3.312 4.33467 3.312 4.612C3.312 4.78267 3.344 4.932 3.408 5.06C3.48267 5.17733 3.59467 5.284 3.744 5.38C3.89333 5.476 4.07467 5.572 4.288 5.668C4.512 5.75333 4.77867 5.84933 5.088 5.956C5.55733 6.12667 5.98933 6.31333 6.384 6.516C6.78933 6.71867 7.136 6.95333 7.424 7.22C7.72267 7.476 7.952 7.78 8.112 8.132C8.28267 8.484 8.368 8.89467 8.368 9.364C8.368 9.684 8.32 10.004 8.224 10.324C8.128 10.6333 7.968 10.9213 7.744 11.188C7.52 11.4547 7.22667 11.684 6.864 11.876C6.512 12.068 6.07467 12.2067 5.552 12.292V14.244H3.536V12.34Z" fill="#604C76"/>
</svg>
