<svg width="22" height="22" viewBox="0 0 22 22" fill="none" xmlns="http://www.w3.org/2000/svg">
<g opacity="0.2">
<path d="M9.96819 17.4527L9.97196 17.4537C9.96936 17.4531 9.96815 17.4528 9.96819 17.4527Z" fill="#333333"/>
<path fill-rule="evenodd" clip-rule="evenodd" d="M1.4668 2.2C1.4668 0.984974 2.45177 0 3.6668 0H15.7039L20.5335 4.82958V19.8C20.5335 21.015 19.5485 22 18.3335 22H3.6668C2.45177 22 1.4668 21.015 1.4668 19.8V2.2ZM10.2668 5.86667H5.8668V7.33333H10.2668V5.86667ZM16.1335 10.2667H5.8668V11.7333H16.1335V10.2667ZM9.24703 15.9982C8.6547 16.1573 8.19213 16.6095 8.02913 17.0985L6.63773 16.6347C6.96361 15.6571 7.82104 14.8626 8.86649 14.5817C9.90361 14.3031 11.086 14.5365 12.1098 15.4784C12.4174 15.3878 12.7221 15.3369 13.0234 15.3208C13.8134 15.2785 14.5235 15.4777 15.1321 15.7314C15.5792 15.9176 16.0126 16.1531 16.377 16.3511C16.4935 16.4144 16.6029 16.4739 16.7035 16.5267C17.1776 16.7756 17.4386 16.8666 17.6001 16.8666V18.3333C17.0283 18.3333 16.4642 18.0576 16.0217 17.8253C15.8851 17.7536 15.753 17.6818 15.6226 17.611C15.2745 17.422 14.939 17.2398 14.568 17.0852C14.0767 16.8805 13.5951 16.7589 13.1018 16.7854C13.0301 16.7892 12.9569 16.7962 12.8822 16.807L12.884 16.8265C12.9231 17.3029 12.7265 17.6946 12.4733 17.9759C12.0061 18.4951 11.2449 18.7675 10.6729 18.8715C10.375 18.9256 10.0546 18.9484 9.77242 18.9071C9.63431 18.8869 9.45623 18.8445 9.28846 18.7446C9.11007 18.6384 8.89865 18.4353 8.84445 18.1101C8.79404 17.8076 8.90787 17.5583 9.00734 17.4051C9.10995 17.247 9.24811 17.1104 9.39086 16.9922C9.66868 16.7621 10.0734 16.5133 10.6142 16.2399L10.6536 16.2112C10.1428 15.9127 9.65223 15.8893 9.24703 15.9982Z" fill="#333333"/>
</g>
</svg>
