<svg width="54" height="54" viewBox="0 0 54 54" fill="none" xmlns="http://www.w3.org/2000/svg">
<g clip-path="url(#clip0_1361:24811)">
<path d="M53.3336 36.143C53.3336 29.6075 49.5842 23.7747 43.9689 20.9375C43.7945 33.4685 33.635 43.628 21.104 43.8024C23.9412 49.4177 29.774 53.1671 36.3095 53.1671C39.3737 53.1671 42.3536 52.351 44.9718 50.8004L53.2592 53.0927L50.9669 44.8053C52.5175 42.1871 53.3336 39.2072 53.3336 36.143Z" fill="#604C76"/>
<path d="M40.887 20.61C40.887 9.52114 31.8659 0.5 20.777 0.5C9.68814 0.5 0.666992 9.52114 0.666992 20.61C0.666992 24.224 1.62894 27.7426 3.45559 30.8318L0.740926 40.6457L10.5553 37.9315C13.6444 39.7581 17.1631 40.7201 20.777 40.7201C31.8659 40.7201 40.887 31.6989 40.887 20.61ZM17.6911 15.9297H14.6051C14.6051 12.5263 17.3736 9.75781 20.777 9.75781C24.1804 9.75781 26.9489 12.5263 26.9489 15.9297C26.9489 17.6571 26.2176 19.3174 24.9418 20.4843L22.32 22.8839V25.2904H19.2341V21.525L22.8584 18.2076C23.5061 17.6149 23.863 16.806 23.863 15.9297C23.863 14.228 22.4787 12.8438 20.777 12.8438C19.0753 12.8438 17.6911 14.228 17.6911 15.9297ZM19.2341 28.3763H22.32V31.4622H19.2341V28.3763Z" fill="#604C76"/>
</g>
<defs>
<clipPath id="clip0_1361:24811">
<rect width="52.6667" height="52.6667" fill="white" transform="translate(0.666992 0.5)"/>
</clipPath>
</defs>
</svg>
