<svg width="56" height="64" viewBox="0 0 56 64" fill="none" xmlns="http://www.w3.org/2000/svg">
<path d="M38.5 34.0808V38.3H30.0999V34.0808H38.5Z" fill="#604C76"/>
<path d="M38.5 25.7V29.8808H30.0999V25.7H38.5Z" fill="#604C76"/>
<path d="M25.9 25.7H17.5V29.8808H25.9V25.7Z" fill="#604C76"/>
<path d="M25.9 34.0808H17.5V38.3H25.9V34.0808Z" fill="#604C76"/>
<path fill-rule="evenodd" clip-rule="evenodd" d="M0.699951 6.8C0.699951 3.32061 3.52056 0.5 6.99995 0.5H41.4698L55.2999 14.3302V57.2C55.2999 60.6794 52.4793 63.5 49 63.5H6.99995C3.52055 63.5 0.699951 60.6794 0.699951 57.2V6.8ZM13.3 17.3H25.9V13.1H13.3V17.3ZM42.7 21.5H13.3V42.5H42.7V21.5ZM42.7 50.9H30.0999V46.7H42.7V50.9Z" fill="#604C76"/>
</svg>
