<svg width="64" height="64" viewBox="0 0 64 64" fill="none" xmlns="http://www.w3.org/2000/svg">
<path d="M42.5 34.0808V38.3H34.0999V34.0808H42.5Z" fill="#604C76"/>
<path d="M42.5 25.7V29.8808H34.0999V25.7H42.5Z" fill="#604C76"/>
<path d="M29.9 25.7H21.5V29.8808H29.9V25.7Z" fill="#604C76"/>
<path d="M29.9 34.0808H21.5V38.3H29.9V34.0808Z" fill="#604C76"/>
<path fill-rule="evenodd" clip-rule="evenodd" d="M4.69995 6.8C4.69995 3.32061 7.52056 0.5 11 0.5H45.4698L59.2999 14.3302V57.2C59.2999 60.6794 56.4793 63.5 53 63.5H10.9999C7.52055 63.5 4.69995 60.6794 4.69995 57.2V6.8ZM17.3 17.3H29.9V13.1H17.3V17.3ZM46.7 21.5H17.3V42.5H46.7V21.5ZM46.7 50.9H34.0999V46.7H46.7V50.9Z" fill="#604C76"/>
</svg>
