<svg width="14" height="19" viewBox="0 0 14 19" fill="none" xmlns="http://www.w3.org/2000/svg">
<path d="M11.9999 6.66634H11.1666V4.99967C11.1666 2.69967 9.29992 0.833008 6.99992 0.833008C4.69992 0.833008 2.83325 2.69967 2.83325 4.99967V6.66634H1.99992C1.08325 6.66634 0.333252 7.41634 0.333252 8.33301V16.6663C0.333252 17.583 1.08325 18.333 1.99992 18.333H11.9999C12.9166 18.333 13.6666 17.583 13.6666 16.6663V8.33301C13.6666 7.41634 12.9166 6.66634 11.9999 6.66634ZM6.99992 14.1663C6.08325 14.1663 5.33325 13.4163 5.33325 12.4997C5.33325 11.583 6.08325 10.833 6.99992 10.833C7.91658 10.833 8.66658 11.583 8.66658 12.4997C8.66658 13.4163 7.91658 14.1663 6.99992 14.1663ZM9.58325 6.66634H4.41658V4.99967C4.41658 3.57467 5.57492 2.41634 6.99992 2.41634C8.42492 2.41634 9.58325 3.57467 9.58325 4.99967V6.66634Z" fill="#604C76"/>
</svg>
