<svg width="74" height="74" viewBox="0 0 74 74" fill="none" xmlns="http://www.w3.org/2000/svg">
<path d="M61.3333 12.668H12.6666C9.32075 12.668 6.58325 15.4055 6.58325 18.7513V55.2513C6.58325 58.5971 9.32075 61.3346 12.6666 61.3346H61.3333C64.6791 61.3346 67.4166 58.5971 67.4166 55.2513V18.7513C67.4166 15.4055 64.6791 12.668 61.3333 12.668ZM60.1166 25.5951L40.2241 38.0355C38.247 39.2826 35.7528 39.2826 33.7758 38.0355L13.8833 25.5951C13.1228 25.1084 12.6666 24.2871 12.6666 23.4051C12.6666 21.3671 14.887 20.1505 16.6208 21.2151L36.9999 33.9596L57.3791 21.2151C59.1128 20.1505 61.3333 21.3671 61.3333 23.4051C61.3333 24.2871 60.877 25.1084 60.1166 25.5951Z" fill="#604C76"/>
</svg>
