<svg width="74" height="74" viewBox="0 0 74 74" fill="none" xmlns="http://www.w3.org/2000/svg">
<path d="M36.9999 6.58203C20.2099 6.58203 6.58325 20.2087 6.58325 36.9987C6.58325 53.7887 20.2099 67.4154 36.9999 67.4154C53.7899 67.4154 67.4166 53.7887 67.4166 36.9987C67.4166 20.2087 53.7899 6.58203 36.9999 6.58203ZM41.2887 55.5225V61.332H33.1674V55.4616C27.9662 54.3666 23.5558 51.0208 23.2212 45.12H29.1828C29.487 48.3137 31.677 50.8079 37.2433 50.8079C43.2049 50.8079 44.5433 47.827 44.5433 45.9716C44.5433 43.447 43.2049 41.0745 36.422 39.4625C28.8787 37.6375 23.7078 34.535 23.7078 28.2995C23.7078 23.0679 27.9358 19.6612 33.1674 18.5358V12.6654H41.2887V18.5966C46.9462 19.9654 49.7749 24.2541 49.9574 28.9079H43.9958C43.8437 25.5316 42.0491 23.2199 37.2433 23.2199C32.6808 23.2199 29.9433 25.2883 29.9433 28.2083C29.9433 30.7633 31.9203 32.4362 38.0645 34.0179C44.2087 35.5995 50.7787 38.2458 50.7787 45.9108C50.7483 51.477 46.5812 54.5187 41.2887 55.5225Z" fill="#604C76"/>
</svg>
