<svg width="21" height="20" viewBox="0 0 21 20" fill="none" xmlns="http://www.w3.org/2000/svg">
<circle cx="10.5" cy="10" r="10" fill="#E7D8FF"/>
<g clip-path="url(#clip0_1361:24994)">
<path d="M10.5 11.0039C11.0523 11.0039 11.5 10.5562 11.5 10.0039C11.5 9.45162 11.0523 9.00391 10.5 9.00391C9.94772 9.00391 9.5 9.45162 9.5 10.0039C9.5 10.5562 9.94772 11.0039 10.5 11.0039Z" fill="#604C76"/>
<path d="M13.1665 7.33854H12.1098L11.6965 6.88854C11.5732 6.75188 11.3932 6.67188 11.2065 6.67188H9.79317C9.6065 6.67188 9.4265 6.75188 9.29984 6.88854L8.88984 7.33854H7.83317C7.4665 7.33854 7.1665 7.63854 7.1665 8.00521V12.0052C7.1665 12.3719 7.4665 12.6719 7.83317 12.6719H13.1665C13.5332 12.6719 13.8332 12.3719 13.8332 12.0052V8.00521C13.8332 7.63854 13.5332 7.33854 13.1665 7.33854ZM10.4998 11.6719C9.57984 11.6719 8.83317 10.9252 8.83317 10.0052C8.83317 9.08521 9.57984 8.33854 10.4998 8.33854C11.4198 8.33854 12.1665 9.08521 12.1665 10.0052C12.1665 10.9252 11.4198 11.6719 10.4998 11.6719Z" fill="#604C76"/>
</g>
<defs>
<clipPath id="clip0_1361:24994">
<rect width="8" height="8" fill="white" transform="translate(6.5 6.00391)"/>
</clipPath>
</defs>
</svg>
