<svg width="16" height="15" viewBox="0 0 16 15" fill="none" xmlns="http://www.w3.org/2000/svg">
<path d="M9.71792 0.375H2.45833C1.5875 0.375 0.875 1.0875 0.875 1.95833V13.0417C0.875 13.9125 1.5875 14.625 2.45833 14.625H13.5417C14.4125 14.625 15.125 13.9125 15.125 13.0417V5.78208C15.125 5.3625 14.9587 4.95875 14.6579 4.66583L10.8342 0.842083C10.5413 0.54125 10.1375 0.375 9.71792 0.375ZM4.83333 9.875H11.1667C11.6021 9.875 11.9583 10.2312 11.9583 10.6667C11.9583 11.1021 11.6021 11.4583 11.1667 11.4583H4.83333C4.39792 11.4583 4.04167 11.1021 4.04167 10.6667C4.04167 10.2312 4.39792 9.875 4.83333 9.875ZM4.83333 6.70833H11.1667C11.6021 6.70833 11.9583 7.06458 11.9583 7.5C11.9583 7.93542 11.6021 8.29167 11.1667 8.29167H4.83333C4.39792 8.29167 4.04167 7.93542 4.04167 7.5C4.04167 7.06458 4.39792 6.70833 4.83333 6.70833ZM4.83333 3.54167H8.79167C9.22708 3.54167 9.58333 3.89792 9.58333 4.33333C9.58333 4.76875 9.22708 5.125 8.79167 5.125H4.83333C4.39792 5.125 4.04167 4.76875 4.04167 4.33333C4.04167 3.89792 4.39792 3.54167 4.83333 3.54167Z" fill="white"/>
</svg>
