<svg width="43" height="42" viewBox="0 0 43 42" fill="none" xmlns="http://www.w3.org/2000/svg">
<path d="M29.3334 4.33342C29.3334 2.02091 31.1876 0.166748 33.5001 0.166748C35.8126 0.166748 37.6667 2.02091 37.6667 4.33342C37.6667 6.64592 35.8126 8.50008 33.5001 8.50008C31.1876 8.50008 29.3334 6.64592 29.3334 4.33342ZM37.6667 41.8334V29.3334H42.8751L36.6251 10.5834H30.3751L27.9376 17.8751H31.4167V41.8334H37.6667ZM22.0417 19.9584C23.7709 19.9584 25.1667 18.5626 25.1667 16.8334C25.1667 15.1042 23.7709 13.7084 22.0417 13.7084C20.3126 13.7084 18.9167 15.1042 18.9167 16.8334C18.9167 18.5626 20.3126 19.9584 22.0417 19.9584ZM7.45841 8.50008C9.77091 8.50008 11.6251 6.64592 11.6251 4.33342C11.6251 2.02091 9.77091 0.166748 7.45841 0.166748C5.14591 0.166748 3.29175 2.02091 3.29175 4.33342C3.29175 6.64592 5.14591 8.50008 7.45841 8.50008ZM11.6251 41.8334V27.2501H14.7501V10.5834H0.166748V27.2501H3.29175V41.8334H11.6251ZM25.1667 41.8334V33.5001H27.2501V22.0417H16.8334V33.5001H18.9167V41.8334H25.1667Z" fill="#604C76"/>
</svg>
