<svg width="42" height="42" viewBox="0 0 42 42" fill="none" xmlns="http://www.w3.org/2000/svg">
<path d="M21.0001 0.166748C9.50008 0.166748 0.166748 9.50008 0.166748 21.0001C0.166748 32.5001 9.50008 41.8334 21.0001 41.8334C32.5001 41.8334 41.8334 32.5001 41.8334 21.0001C41.8334 9.50008 32.5001 0.166748 21.0001 0.166748ZM12.6667 32.4584C9.79175 32.4584 7.45842 30.1251 7.45842 27.2501C7.45842 24.3751 9.79175 22.0417 12.6667 22.0417C15.5417 22.0417 17.8751 24.3751 17.8751 27.2501C17.8751 30.1251 15.5417 32.4584 12.6667 32.4584ZM15.7917 12.6667C15.7917 9.79175 18.1251 7.45842 21.0001 7.45842C23.8751 7.45842 26.2084 9.79175 26.2084 12.6667C26.2084 15.5417 23.8751 17.8751 21.0001 17.8751C18.1251 17.8751 15.7917 15.5417 15.7917 12.6667ZM29.3334 32.4584C26.4584 32.4584 24.1251 30.1251 24.1251 27.2501C24.1251 24.3751 26.4584 22.0417 29.3334 22.0417C32.2084 22.0417 34.5418 24.3751 34.5418 27.2501C34.5418 30.1251 32.2084 32.4584 29.3334 32.4584Z" fill="#604C76"/>
</svg>
